<svg width="414" height="214" viewBox="0 0 414 214" fill="none" xmlns="http://www.w3.org/2000/svg">
<path fill-rule="evenodd" clip-rule="evenodd" d="M67.8108 100.796C66.9757 101.378 66.1538 101.977 65.3455 102.592C65.3307 102.605 65.3161 102.617 65.3017 102.63C65.0228 102.88 64.9373 103.114 65.0451 103.33C65.0683 103.376 65.0975 103.418 65.132 103.456C65.3273 103.679 65.5583 103.739 65.8251 103.636C65.8754 103.617 65.9241 103.593 65.9706 103.567C66.0886 103.496 66.2095 103.429 66.333 103.368C67.8077 102.635 69.3807 102.738 71.0521 103.676C72.0062 104.212 72.956 104.756 73.9014 105.306C74.9454 105.914 75.9854 106.528 77.0214 107.149C81.8892 110.103 86.7787 111.223 91.69 110.511C92.8096 110.348 93.9111 110.086 94.9805 109.73C98.7077 108.494 102.303 106.083 105.767 102.498C106.894 101.342 107.873 100.061 108.682 98.6832C109.83 96.7013 110.661 94.5656 111.145 92.3479C111.458 90.9641 111.615 89.5522 111.615 88.1364C111.615 87.0359 111.521 85.9245 111.334 84.8021C111.041 83.0954 110.564 81.4223 109.911 79.8093C109.156 77.9388 108.13 76.1783 106.865 74.5791C105.181 72.4808 103.149 70.6599 100.85 69.1886C96.5665 66.3903 91.6439 64.6123 86.494 64.0034C86.4898 64.0029 86.4855 64.0025 86.4812 64.0021C86.4098 63.9974 86.3443 64.0006 86.2845 64.0117C86.2106 64.0239 86.1406 64.0521 86.08 64.0943C86.0193 64.1365 85.9697 64.1915 85.9349 64.255C85.5507 64.9295 85.0986 65.5667 84.5851 66.1574C83.6317 67.2422 82.4988 68.1705 81.2313 68.9054C79.1701 70.1205 76.5499 71.4402 73.3706 72.8646C72.7498 73.174 72.1433 73.5088 71.5526 73.8679C70.3078 74.6278 69.2572 75.4408 68.4009 76.307C66.6759 77.9559 65.6668 80.1666 65.5758 82.4962C65.5728 82.5859 65.5712 82.6755 65.5711 82.7652C65.5711 85.639 67.1594 87.9884 70.3361 89.8135C71.4074 90.4174 72.5329 90.9289 73.6993 91.342C74.1524 91.5089 74.6044 91.6786 75.0552 91.8511C78.0392 92.9936 80.0101 93.9081 80.9679 94.5946C82.0645 95.3802 82.0645 96.37 80.9679 97.564C80.712 97.8437 80.6543 98.0834 80.7948 98.2829C80.8254 98.3251 80.8617 98.3634 80.9026 98.3968C80.9081 98.4016 80.9137 98.4063 80.9194 98.4109C81.1377 98.5808 81.4071 98.5652 81.7277 98.3639C81.7954 98.3211 81.8604 98.2745 81.9224 98.2243C82.3298 97.9046 82.7276 97.5738 83.1153 97.2326C85.8819 94.7917 87.1398 92.5506 86.8887 90.5092C86.6615 88.6648 84.6241 86.89 80.7766 85.185C79.6976 84.7117 78.5984 84.2812 77.4821 83.8947C76.0065 83.3734 74.8408 82.744 73.9849 82.0065C73.0355 81.2356 72.4184 80.1563 72.2524 78.9766C72.0494 77.4474 72.4359 76.1601 73.4117 75.1145C73.8407 74.6644 74.3366 74.2769 74.8834 73.9645C77.1786 72.5963 79.8308 71.8734 82.536 71.8787C83.5046 71.8787 84.495 71.9664 85.5072 72.1419C89.3664 72.8125 93.1486 74.4047 96.8537 76.9184C102.116 80.522 105.224 84.8113 106.178 89.7865C107.132 94.7621 106.6 98.6222 104.583 101.367C104.176 101.916 103.731 102.438 103.25 102.93C101.483 104.806 99.0772 106.023 96.4597 106.363C96.0714 106.413 95.6801 106.437 95.2883 106.437C93.1387 106.437 90.7421 105.721 88.0985 104.289C86.986 103.679 85.912 103.008 84.8821 102.278C84.4453 101.971 84.0054 101.668 83.5626 101.369C79.7196 98.778 76.9691 97.4258 75.3112 97.313C73.8032 97.21 71.3031 98.371 67.8108 100.796ZM189.932 102.686V102.718L189.965 102.749C190.231 103.67 190.456 104.601 190.64 105.539C191.218 108.52 191.217 111.086 190.638 113.236C190.203 114.948 189.282 116.511 187.976 117.754C186.996 118.688 185.938 119.544 184.813 120.313C183.593 121.137 182.377 121.767 181.164 122.204C180.198 122.557 179.187 122.788 178.158 122.892C177.691 122.936 177.223 122.967 176.754 122.985C173.462 123.107 170.905 122.49 169.084 121.135C168.221 120.489 167.513 119.673 167.008 118.744C166.592 117.99 166.586 117.278 166.991 116.607C167.17 116.302 167.415 116.037 167.709 115.83C168.029 115.612 168.397 115.47 168.784 115.413C170.341 115.162 171.711 116.125 172.895 118.304C174.518 121.425 176.886 122.379 180 121.164C182.594 120.127 184.116 118.362 184.565 115.868C184.579 115.79 184.592 115.712 184.604 115.633C184.703 114.97 184.752 114.3 184.752 113.629C184.757 111.681 184.381 109.546 183.626 107.225C183.56 107.021 183.491 106.817 183.42 106.614C183.42 106.603 183.419 106.591 183.417 106.579C183.415 106.566 183.411 106.555 183.405 106.544C183.401 106.535 183.395 106.527 183.387 106.52L183.354 106.489C183.333 106.436 183.305 106.387 183.272 106.34C183.143 106.166 182.951 106.123 182.696 106.212C182.674 106.22 182.652 106.228 182.631 106.237C181.997 106.514 181.36 106.785 180.72 107.048C180.153 107.282 179.554 107.525 178.924 107.775C178.265 108.036 177.604 108.293 176.941 108.547C176.227 108.819 175.522 109.113 174.828 109.427C173.593 109.991 172.565 110.562 171.744 111.139C171.309 111.417 170.992 111.535 170.792 111.494C170.78 111.492 170.769 111.489 170.757 111.485C170.704 111.469 170.656 111.441 170.617 111.402C170.578 111.363 170.551 111.316 170.537 111.264C170.512 111.181 170.509 111.077 170.527 110.952C170.527 110.952 170.527 110.951 170.527 110.951C170.549 110.586 170.39 109.976 170.052 109.12C170.041 109.092 170.029 109.063 170.018 109.034C169.802 108.492 169.547 107.965 169.256 107.456C169.09 107.167 168.911 106.887 168.718 106.614C167.315 104.666 166.405 102.885 165.988 101.272C165.67 100.037 165.396 98.6239 165.167 97.0331C165.095 96.5301 165.029 96.0264 164.969 95.522C164.741 93.5003 165.175 91.5818 166.271 89.7666C166.334 89.6624 166.399 89.5592 166.465 89.457C167.704 87.5503 169.332 85.8535 171.349 84.3664C172.621 83.4444 173.816 82.4703 174.934 81.444C175.746 80.693 176.467 79.8571 177.082 78.9521C177.36 78.5467 177.62 78.1304 177.862 77.7042C177.905 77.627 177.956 77.5533 178.013 77.4841C178.364 77.0598 178.807 77.1121 179.342 77.6412C180.44 78.8457 181.656 79.9479 182.973 80.933C184.56 82.1047 186.193 82.9767 187.873 83.5491C188.524 83.7712 189.19 83.9497 189.866 84.0832C189.971 84.1079 190.075 84.1367 190.178 84.1695C190.846 84.3866 190.967 84.6796 190.541 85.0486C190.524 85.0624 190.508 85.0759 190.491 85.0891C189.709 86.1703 189.068 87.3394 188.585 88.5702C188.036 89.9933 187.762 91.4306 187.762 92.8821C187.762 93.1704 187.773 93.4587 187.794 93.7464C187.984 96.1625 188.475 98.5482 189.259 100.853C189.466 101.47 189.69 102.081 189.932 102.686V102.686ZM230.749 74.9388L230.847 83.078C230.847 83.2089 230.868 83.3155 230.91 83.3978C230.944 83.47 231.003 83.5288 231.078 83.5645C231.142 83.595 231.212 83.6107 231.284 83.6102C231.37 83.6102 231.465 83.5896 231.567 83.5484C231.59 83.5389 231.614 83.5286 231.637 83.5176C232.861 82.8938 234.063 82.2325 235.243 81.5347C235.417 81.4318 235.591 81.3282 235.764 81.2239C237.157 80.386 238.445 79.4326 239.629 78.3639C239.697 78.295 239.768 78.2289 239.842 78.1657C240.504 77.6015 240.904 77.8038 241.043 78.7725C241.104 79.4715 241.399 80.1332 241.885 80.6588C241.942 80.7232 242.002 80.7859 242.063 80.8468C242.433 81.2119 242.791 81.5877 243.137 81.9736C243.332 82.1913 243.522 82.4127 243.707 82.6378C246.065 85.5561 247.244 88.6669 247.244 91.9701C247.244 92.2008 247.238 92.4315 247.227 92.662C247.155 94.0453 246.893 95.4136 246.449 96.7319C245.852 98.4964 244.835 100.104 243.477 101.429C242.64 102.263 241.751 103.048 240.816 103.779C240.657 103.903 240.497 104.026 240.336 104.148C239.68 104.641 239.055 105.171 238.465 105.735C238.089 106.095 237.731 106.473 237.392 106.865L237.359 106.803C236.894 107.379 236.447 107.968 236.018 108.57C235.603 109.156 235.238 109.716 234.922 110.251C234.738 110.563 234.563 110.88 234.4 111.202C234.12 111.755 233.769 111.805 233.345 111.353C233.3 111.305 233.256 111.254 233.216 111.202C231.951 109.736 230.437 108.484 228.738 107.498C227.361 106.681 225.805 105.961 224.07 105.34C223.452 105.119 222.827 104.916 222.197 104.729C222.113 104.704 222.03 104.674 221.949 104.641C221.637 104.511 221.489 104.357 221.507 104.179C221.525 103.992 221.655 103.854 221.895 103.766C221.94 103.75 221.986 103.735 222.033 103.724C223.436 103.262 224.127 101.869 224.105 99.5442L224.039 80.5012C224.024 78.4992 223.854 76.7584 223.53 75.2786C223.404 74.6899 223.239 74.1093 223.036 73.5404C222.732 72.6881 222.365 71.8573 221.938 71.0543C221.55 70.3236 221.098 69.6258 220.586 68.9685C220.323 68.5493 220.35 68.235 220.668 68.0257C220.716 67.9933 220.768 67.9665 220.823 67.9459C221.038 67.8665 221.256 67.9156 221.477 68.0932C221.534 68.1402 221.588 68.1912 221.638 68.2458C222.195 68.9315 222.703 69.652 223.159 70.4023C223.487 70.944 223.781 71.5041 224.039 72.0795C224.103 72.2477 224.196 72.3656 224.319 72.4334C224.365 72.4586 224.415 72.4769 224.467 72.4875C224.494 72.4934 224.522 72.4964 224.55 72.4965C224.674 72.4965 224.789 72.4349 224.894 72.3118C224.931 72.2682 224.964 72.222 224.993 72.1734C227.383 68.4446 231.319 66.3078 236.8 65.7629C237.211 65.7453 237.462 65.8792 237.555 66.1645C237.573 66.218 237.584 66.2729 237.59 66.3286C237.592 66.3519 237.594 66.3753 237.595 66.3987C237.601 66.7063 237.41 66.8951 237.022 66.9651C236.96 66.9762 236.897 66.9841 236.833 66.9889C236.255 67.0125 235.68 67.0785 235.113 67.1864C233.766 67.452 232.761 67.9622 232.097 68.7168C231.807 69.062 231.579 69.4511 231.422 69.8682C230.973 70.9974 230.748 72.6162 230.748 74.7245C230.748 74.796 230.748 74.8674 230.749 74.9388V74.9388ZM135.335 71.7023C133.821 71.0326 132.171 70.6888 130.502 70.6952C129.337 70.6952 128.131 70.8528 126.883 71.1682C126.283 71.2827 126.002 71.5279 126.04 71.9038C126.044 71.9417 126.051 71.9793 126.06 72.0164C126.17 72.4562 126.51 72.5714 127.08 72.362C127.508 72.2231 127.943 72.1051 128.383 72.0087C129.202 71.8306 130.001 71.7416 130.78 71.7416C132.224 71.7387 133.649 72.0587 134.94 72.6761C135.506 72.9652 136.041 73.3052 136.539 73.6916C137.283 74.2637 137.903 74.9705 138.361 75.7716C138.832 76.6082 139.011 77.4234 138.9 78.2172C138.841 78.6182 138.715 79.0075 138.526 79.3698C137.933 80.5012 136.656 81.0563 134.694 81.0353C132.731 81.0143 130.281 79.7572 127.343 77.264C127.321 77.2451 127.299 77.2266 127.277 77.2087C127.022 77.0057 126.814 76.9719 126.652 77.107C125.272 78.4496 123.782 79.6844 122.196 80.7998C120.628 81.8994 119.219 83.1091 117.969 84.4288C116.665 85.7765 115.912 87.5278 115.848 89.3624C115.845 89.4269 115.844 89.4915 115.844 89.5561C115.844 91.3654 116.881 93.3015 118.956 95.3643C119.517 95.9281 119.963 96.4534 120.292 96.9404C120.453 97.1742 120.594 97.4195 120.715 97.674C120.792 97.836 120.832 98.0118 120.832 98.1895C120.832 98.6031 120.622 99.0489 120.202 99.5269C120.049 99.699 119.886 99.8621 119.713 100.015C119.077 100.581 118.441 101.157 117.805 101.743C117.18 102.32 116.566 102.906 115.963 103.503C115.937 103.534 115.912 103.565 115.887 103.597C115.575 104.007 115.633 104.29 116.062 104.446C116.691 104.643 117.319 104.844 117.946 105.05C119.75 105.641 121.54 106.273 123.314 106.945C124.786 107.503 125.844 108.12 126.488 108.795C126.82 109.126 127.058 109.533 127.179 109.976C127.354 110.815 127.847 110.857 128.658 110.103C130.303 108.489 131.964 106.892 133.642 105.31C135.322 103.725 136.908 102.052 138.394 100.298C139.26 99.2673 139.631 98.1074 139.506 96.8181C139.475 96.4973 139.416 96.1795 139.331 95.8676C139.211 95.4391 139.037 95.0258 138.815 94.6364C138.279 93.6736 137.406 92.6068 136.195 91.436C135.56 90.8254 134.9 90.2385 134.217 89.6765C134.181 89.646 134.145 89.6147 134.111 89.5825C133.405 88.9239 133.39 88.1952 134.066 87.3963C134.194 87.2468 134.332 87.1058 134.48 86.9741C135.05 86.4713 135.653 85.9895 136.289 85.5287C136.766 85.1829 137.344 84.7311 138.025 84.1733C138.264 83.9771 138.502 83.7796 138.739 83.5806C139.737 82.7427 140.335 81.4543 140.532 79.7154C140.565 79.426 140.582 79.1351 140.582 78.844C140.591 77.4775 140.173 76.1396 139.381 75.0019C138.975 74.411 138.496 73.8688 137.955 73.3872C137.176 72.7021 136.292 72.134 135.335 71.7023V71.7023ZM154.839 84.4919L154.806 102.09C154.806 102.65 154.929 103.047 155.174 103.279C155.212 103.316 155.254 103.349 155.299 103.378L157.668 104.666C157.761 104.745 157.881 104.788 158.006 104.787C158.402 104.787 158.936 104.393 159.607 103.605C159.731 103.459 159.852 103.309 159.97 103.158C160.004 103.11 160.044 103.066 160.089 103.028C160.252 102.894 160.452 102.881 160.689 102.988C160.718 103.001 160.747 103.016 160.776 103.032C161.116 103.221 161.132 103.472 160.825 103.786C159.848 104.801 158.931 105.867 158.079 106.979C157.045 108.337 156.196 109.682 155.53 111.014C155.207 111.394 154.86 111.445 154.489 111.168C154.426 111.121 154.367 111.069 154.313 111.014C153.916 110.566 153.504 110.131 153.077 109.711C152.311 108.959 151.583 108.356 150.892 107.903C150.5 107.65 150.087 107.429 149.657 107.241C148.728 106.829 147.572 106.463 146.189 106.143C146.114 106.13 146.04 106.11 145.97 106.084C145.891 106.053 145.826 106.014 145.775 105.968C145.689 105.891 145.637 105.785 145.63 105.672C145.628 105.654 145.627 105.636 145.627 105.619C145.627 105.4 145.754 105.242 146.007 105.144C146.013 105.142 146.019 105.14 146.025 105.137C146.467 105.045 146.875 104.841 147.207 104.548C147.539 104.254 147.783 103.881 147.913 103.467C148.102 102.959 148.196 102.342 148.196 101.615C148.196 101.584 148.195 101.554 148.195 101.524L148.162 84.5234C148.163 84.5072 148.164 84.4908 148.164 84.4745C148.169 84.1772 148.046 84.0082 147.798 83.9674C147.755 83.9607 147.712 83.9575 147.669 83.9577H143.788C143.714 83.9584 143.64 83.9501 143.568 83.9333C143.393 83.8908 143.272 83.7915 143.206 83.6353C143.202 83.6277 143.199 83.6199 143.196 83.6122C143.108 83.3818 143.207 83.1827 143.492 83.0149C146.123 81.2344 148.803 79.087 151.533 76.5728C152.851 75.3608 154.154 74.1352 155.443 72.8962C156.639 71.7477 157.819 70.5849 158.983 69.408C159.029 69.3603 159.079 69.3162 159.132 69.2761C159.331 69.1281 159.526 69.0961 159.719 69.1802C159.755 69.1958 159.789 69.2144 159.822 69.2356C159.864 69.2626 159.903 69.2948 159.937 69.3315C160.084 69.4953 160.059 69.7097 159.862 69.9744C159.854 69.9848 159.846 69.9951 159.838 70.0053C159.399 70.529 158.988 71.0735 158.606 71.6367C158.005 72.5175 157.401 73.5241 156.796 74.6563C155.968 76.2043 155.404 77.6418 155.104 78.9688C155.036 79.2678 154.98 79.5692 154.938 79.8724C154.93 79.9061 154.925 79.94 154.92 79.9741C154.902 80.1131 154.912 80.2246 154.951 80.3087C154.957 80.3209 154.963 80.3327 154.971 80.3441C155.029 80.401 155.098 80.4472 155.173 80.4806C155.254 80.5152 155.342 80.5327 155.431 80.5321H161.121C161.193 80.5312 161.265 80.5442 161.332 80.5704C161.399 80.5966 161.46 80.6354 161.51 80.6846C161.512 80.6863 161.514 80.688 161.516 80.6897C161.593 80.7923 161.642 80.8899 161.665 80.9825C161.675 81.0203 161.68 81.0589 161.68 81.0977L161.548 83.4551C161.54 83.5264 161.522 83.5963 161.494 83.663C161.426 83.8205 161.304 83.9148 161.129 83.9462C161.083 83.9541 161.036 83.958 160.989 83.9577H155.299C155.231 83.9564 155.163 83.9675 155.099 83.9906C154.944 84.0502 154.858 84.1905 154.842 84.4115C154.84 84.4382 154.839 84.4651 154.839 84.4919V84.4919ZM304.027 84.4919L303.994 102.09C303.994 102.65 304.117 103.047 304.362 103.279C304.401 103.316 304.443 103.349 304.488 103.378L306.856 104.666C306.949 104.745 307.069 104.788 307.194 104.787C307.591 104.787 308.124 104.393 308.795 103.605C308.92 103.459 309.041 103.309 309.158 103.158C309.192 103.11 309.233 103.066 309.278 103.028C309.44 102.894 309.64 102.881 309.878 102.988C309.907 103.001 309.936 103.016 309.964 103.032C310.304 103.221 310.32 103.472 310.014 103.786C309.037 104.801 308.12 105.867 307.267 106.979C306.234 108.337 305.384 109.682 304.718 111.014C304.396 111.394 304.049 111.445 303.678 111.168C303.615 111.121 303.556 111.069 303.501 111.014C303.105 110.566 302.693 110.131 302.266 109.711C301.5 108.959 300.771 108.356 300.08 107.903C299.689 107.65 299.276 107.429 298.846 107.241C297.916 106.829 296.76 106.463 295.377 106.143C295.302 106.13 295.229 106.11 295.158 106.084C295.08 106.053 295.015 106.014 294.964 105.968C294.877 105.891 294.825 105.785 294.818 105.672C294.817 105.654 294.816 105.636 294.816 105.619C294.816 105.4 294.942 105.242 295.195 105.144C295.201 105.142 295.207 105.14 295.213 105.137C295.655 105.045 296.063 104.841 296.395 104.548C296.727 104.254 296.972 103.881 297.102 103.467C297.29 102.959 297.384 102.342 297.384 101.615C297.384 101.584 297.384 101.554 297.384 101.524L297.351 84.5234C297.352 84.5071 297.352 84.4908 297.352 84.4745C297.357 84.1772 297.235 84.0082 296.986 83.9674C296.944 83.9607 296.9 83.9574 296.857 83.9577H292.977C292.902 83.9584 292.828 83.9502 292.756 83.9333C292.582 83.8908 292.461 83.7915 292.394 83.6353C292.391 83.6277 292.388 83.6199 292.385 83.6122C292.297 83.3818 292.395 83.1827 292.68 83.0149C295.312 81.2344 297.992 79.087 300.722 76.5728C302.039 75.3608 303.342 74.1352 304.632 72.8962C305.827 71.7477 307.007 70.5849 308.171 69.408C308.217 69.3603 308.267 69.3162 308.321 69.2761C308.519 69.1281 308.715 69.0961 308.908 69.1802C308.944 69.1959 308.978 69.2144 309.01 69.2356C309.053 69.2626 309.091 69.2948 309.125 69.3315C309.273 69.4953 309.248 69.7097 309.05 69.9744C309.043 69.9848 309.035 69.9951 309.027 70.0053C308.588 70.529 308.177 71.0735 307.795 71.6367C307.193 72.5175 306.59 73.5241 305.984 74.6563C305.156 76.2043 304.592 77.6418 304.292 78.9688C304.224 79.2678 304.169 79.5692 304.126 79.8724C304.119 79.9061 304.113 79.94 304.108 79.9741C304.09 80.1131 304.1 80.2246 304.14 80.3087C304.145 80.3209 304.152 80.3327 304.159 80.3441C304.217 80.401 304.286 80.4473 304.362 80.4806C304.443 80.5152 304.531 80.5327 304.62 80.5321H310.309C310.382 80.5312 310.453 80.5442 310.52 80.5704C310.587 80.5966 310.648 80.6354 310.699 80.6846C310.7 80.6863 310.702 80.688 310.704 80.6897C310.781 80.7923 310.831 80.8899 310.854 80.9825C310.863 81.0203 310.868 81.0589 310.868 81.0977L310.737 83.4551C310.729 83.5264 310.71 83.5963 310.682 83.663C310.615 83.8205 310.493 83.9148 310.317 83.9462C310.271 83.9541 310.224 83.9579 310.178 83.9577H304.488C304.419 83.9564 304.351 83.9675 304.287 83.9906C304.132 84.0502 304.046 84.1905 304.03 84.4115C304.028 84.4382 304.027 84.4651 304.027 84.4919ZM212.264 78.333L217.001 88.9537C217.22 89.5197 217.143 89.876 216.771 90.0227H216.705L203.22 95.0187C202.966 95.1397 202.855 95.3289 202.887 95.5863C202.888 95.5962 202.889 95.6061 202.891 95.6159C203.14 96.7233 203.466 97.8138 203.866 98.8801C204.762 101.225 205.935 102.93 207.386 103.996C207.669 104.205 207.97 104.392 208.285 104.556C208.986 104.926 209.73 105.216 210.502 105.421C212.198 105.862 213.889 105.796 215.574 105.223C215.656 105.196 215.736 105.167 215.817 105.137C216.255 104.949 216.535 104.98 216.655 105.231C216.669 105.26 216.681 105.29 216.69 105.32C216.748 105.509 216.675 105.658 216.471 105.767C216.451 105.778 216.43 105.788 216.409 105.797C214.897 106.527 213.405 107.295 211.936 108.1C211.732 108.211 211.53 108.324 211.327 108.437C210.36 108.976 209.418 109.556 208.504 110.175C207.992 110.524 207.491 110.887 207.002 111.265C206.826 111.377 206.577 111.422 206.253 111.401C206.212 111.399 206.171 111.395 206.131 111.391C205.967 111.373 205.839 111.338 205.745 111.285C205.686 111.257 205.638 111.214 205.604 111.16C205.571 111.106 205.553 111.045 205.555 110.982C205.542 110.789 205.484 110.601 205.385 110.431C205.286 110.262 205.148 110.117 204.982 110.005C204.898 109.947 204.809 109.896 204.716 109.851C204.507 109.749 204.3 109.641 204.098 109.527C203.907 109.42 203.732 109.312 203.572 109.204C203.52 109.169 203.469 109.133 203.418 109.097C200.896 107.463 199.114 105.467 198.073 103.11C197.026 100.731 196.43 98.1939 196.313 95.6159C196.05 89.6454 197.738 85.0994 201.378 81.9781C202.662 80.8834 204.118 79.9884 205.694 79.326C205.746 79.3037 205.799 79.2816 205.851 79.2597C207.54 78.5578 209.272 77.987 211.048 77.5472C211.102 77.5367 211.157 77.5298 211.212 77.5266C211.633 77.5026 211.959 77.7195 212.193 78.1772C212.219 78.2283 212.243 78.2803 212.264 78.333V78.333ZM284.952 78.333L289.688 88.9537C289.907 89.5197 289.83 89.876 289.457 90.0227H289.391L275.907 95.0187C275.653 95.1397 275.542 95.3289 275.573 95.5863C275.575 95.5962 275.576 95.6061 275.578 95.6159C275.827 96.7233 276.153 97.8137 276.553 98.8801C277.449 101.225 278.622 102.93 280.072 103.996C280.356 104.205 280.657 104.392 280.971 104.556C281.673 104.926 282.417 105.216 283.188 105.421C284.884 105.862 286.575 105.796 288.262 105.223C288.343 105.196 288.423 105.167 288.503 105.137C288.942 104.949 289.222 104.98 289.342 105.231C289.356 105.26 289.368 105.29 289.377 105.32C289.434 105.509 289.361 105.658 289.157 105.767C289.137 105.778 289.117 105.788 289.095 105.797C287.583 106.527 286.092 107.295 284.622 108.1C284.419 108.211 284.216 108.324 284.014 108.437C283.046 108.976 282.104 109.556 281.191 110.175C280.679 110.524 280.178 110.887 279.689 111.265C279.513 111.377 279.264 111.422 278.94 111.401C278.899 111.399 278.858 111.395 278.817 111.391C278.654 111.373 278.525 111.338 278.431 111.285C278.373 111.257 278.325 111.213 278.291 111.16C278.258 111.106 278.241 111.045 278.242 110.982C278.229 110.789 278.171 110.6 278.072 110.431C277.972 110.262 277.834 110.117 277.668 110.005C277.584 109.947 277.495 109.896 277.403 109.851C277.193 109.749 276.987 109.641 276.784 109.527C276.594 109.42 276.419 109.312 276.259 109.204C276.207 109.169 276.155 109.133 276.104 109.097C273.583 107.463 271.801 105.467 270.759 103.11C269.713 100.731 269.117 98.1939 269 95.6159C268.737 89.6454 270.425 85.0994 274.064 81.9781C275.349 80.8834 276.805 79.9884 278.38 79.326C278.432 79.3037 278.485 79.2816 278.538 79.2597C280.226 78.5578 281.958 77.987 283.734 77.5472C283.789 77.5367 283.844 77.5298 283.899 77.5266C284.319 77.5026 284.646 77.7195 284.879 78.1772C284.905 78.2283 284.93 78.2803 284.952 78.333V78.333ZM330.142 78.333L334.878 88.9537C335.097 89.5197 335.021 89.876 334.648 90.0227H334.582L321.097 95.0187C320.844 95.1397 320.733 95.3289 320.764 95.5863C320.765 95.5962 320.767 95.6061 320.768 95.6159C321.018 96.7233 321.343 97.8138 321.743 98.8801C322.639 101.225 323.812 102.93 325.263 103.996C325.547 104.205 325.847 104.392 326.162 104.556C326.864 104.926 327.607 105.216 328.379 105.421C330.075 105.862 331.766 105.796 333.452 105.223C333.533 105.196 333.614 105.167 333.694 105.137C334.132 104.949 334.412 104.98 334.533 105.231C334.547 105.26 334.558 105.29 334.568 105.32C334.625 105.509 334.552 105.658 334.348 105.767C334.328 105.778 334.307 105.788 334.286 105.797C332.774 106.527 331.283 107.295 329.813 108.1C329.61 108.211 329.407 108.324 329.205 108.437C328.237 108.976 327.295 109.556 326.382 110.175C325.869 110.524 325.369 110.887 324.88 111.265C324.704 111.377 324.454 111.422 324.131 111.401C324.09 111.399 324.049 111.395 324.008 111.391C323.845 111.373 323.716 111.338 323.622 111.285C323.564 111.257 323.515 111.214 323.481 111.16C323.448 111.106 323.431 111.045 323.432 110.982C323.419 110.789 323.361 110.601 323.262 110.431C323.163 110.262 323.025 110.117 322.859 110.005C322.775 109.947 322.686 109.896 322.593 109.851C322.384 109.749 322.178 109.641 321.975 109.527C321.785 109.42 321.61 109.312 321.45 109.204C321.398 109.169 321.346 109.133 321.295 109.097C318.773 107.463 316.991 105.467 315.95 103.11C314.903 100.731 314.308 98.1939 314.191 95.6159C313.927 89.6454 315.616 85.0994 319.255 81.9781C320.539 80.8834 321.996 79.9884 323.571 79.326C323.623 79.3037 323.676 79.2816 323.728 79.2597C325.417 78.5578 327.149 77.987 328.925 77.5472C328.979 77.5367 329.034 77.5298 329.09 77.5266C329.51 77.5026 329.837 77.7195 330.07 78.1772C330.096 78.2283 330.12 78.2803 330.142 78.333V78.333ZM254.101 102.718L253.87 85.4972C253.87 85.2054 253.835 84.9531 253.765 84.7403C253.74 84.6659 253.709 84.5933 253.673 84.5234C253.608 84.4219 253.539 84.3232 253.465 84.2274C253.036 83.6748 252.662 83.5675 252.343 83.9056C252.337 83.9124 252.331 83.9193 252.324 83.9262L251.009 85.2146C250.671 85.578 250.348 85.6302 250.04 85.371C250.029 85.361 250.017 85.3507 250.006 85.3401C249.941 85.2815 249.888 85.2114 249.851 85.1335C249.734 84.8821 249.815 84.5685 250.094 84.1927C250.113 84.1664 250.133 84.1404 250.153 84.1148C250.914 83.2087 251.634 82.2717 252.31 81.3063C252.46 81.0918 252.607 80.8757 252.752 80.6582C253.52 79.5058 254.309 78.3641 255.12 77.2331C255.169 77.1765 255.224 77.125 255.284 77.0793C255.594 76.8485 255.943 76.9081 256.331 77.2582C256.333 77.2602 256.335 77.2621 256.337 77.264C256.778 77.777 257.233 78.2787 257.702 78.7687C258.131 79.2178 258.576 79.6539 259.034 80.0764C259.38 80.3914 259.744 80.6879 260.124 80.9645C260.858 81.503 261.744 82.0607 262.783 82.6378C262.86 82.6654 262.935 82.697 263.009 82.7324C263.309 82.8787 263.437 83.0462 263.392 83.235C263.343 83.4397 263.221 83.5617 263.025 83.6012C263 83.6063 262.974 83.6099 262.948 83.6122C262.519 83.7722 262.128 84.0127 261.798 84.3194C261.669 84.4377 261.548 84.5634 261.435 84.6959C261.04 85.1589 260.822 85.8987 260.783 86.9156C260.779 87.0294 260.777 87.1434 260.777 87.2573V100.549C260.776 100.971 260.795 101.392 260.835 101.812C260.918 102.638 261.09 103.285 261.352 103.755C261.504 104.05 261.737 104.3 262.027 104.478C262.895 104.968 263.621 104.83 264.205 104.065C264.273 103.975 264.337 103.882 264.395 103.786C264.425 103.731 264.459 103.678 264.497 103.627C264.683 103.386 264.899 103.338 265.146 103.484C265.165 103.495 265.183 103.507 265.201 103.519C265.504 103.729 265.513 104.067 265.229 104.533C265.215 104.557 265.2 104.58 265.185 104.603C264.527 105.588 263.913 106.578 263.342 107.573C262.772 108.568 262.192 109.557 261.6 110.542C261.532 110.64 261.453 110.73 261.366 110.813C260.995 111.159 260.558 111.195 260.054 110.919C259.313 110.585 258.601 110.194 257.927 109.748C256.974 109.11 256.197 108.401 255.597 107.62C254.959 106.777 254.52 105.812 254.311 104.792C254.167 104.109 254.096 103.414 254.101 102.718V102.718ZM176.448 83.9262L176.382 83.8947V83.8316C176.295 83.7088 176.202 83.5904 176.102 83.477C175.514 82.8128 174.977 82.7446 174.491 83.2724C174.412 83.3592 174.341 83.4517 174.277 83.5491C172.388 86.1785 171.381 89.2946 171.39 92.4837C171.391 93.1629 171.432 93.8414 171.514 94.5161C171.716 96.1936 172.051 97.854 172.515 99.4831C172.748 100.29 173.017 101.086 173.323 101.869C173.585 102.556 173.927 103.212 174.342 103.825C174.943 104.697 175.666 105.373 176.511 105.853C176.795 106.014 177.093 106.153 177.402 106.269L177.434 106.3H177.467C178.695 106.614 180.285 106.174 182.236 104.98C182.454 104.876 182.531 104.679 182.468 104.39C182.467 104.388 182.467 104.385 182.466 104.383C181.74 102.51 181.365 100.528 181.361 98.5306C181.361 98.035 181.384 97.5396 181.43 97.0459C181.644 94.745 182.615 92.4037 184.344 90.0221C184.483 89.8317 184.624 89.6433 184.769 89.457C184.792 89.4181 184.812 89.3776 184.829 89.336C184.935 89.0786 184.858 88.8774 184.596 88.7324C184.577 88.7219 184.558 88.712 184.538 88.7028C184.048 88.5083 183.566 88.2958 183.093 88.0656C182.209 87.6392 181.232 87.1078 180.164 86.4715C179.766 86.2352 179.372 85.9937 178.982 85.7469C178.142 85.2144 177.449 84.7339 176.905 84.3053C176.749 84.1827 176.597 84.0563 176.448 83.9262V83.9262ZM230.847 85.2146L230.979 101.209C230.978 101.305 230.993 101.4 231.024 101.492C231.08 101.649 231.192 101.783 231.341 101.869L236.406 104.76C236.908 105.01 237.336 104.995 237.692 104.718C237.725 104.692 237.757 104.664 237.787 104.635L238.346 104.038C238.381 104.038 238.402 104.024 238.41 103.998C238.411 103.99 238.412 103.982 238.412 103.975C239.518 102.424 240.285 100.676 240.665 98.8357C240.947 97.507 241.085 96.1542 241.076 94.7986C241.054 92.7246 240.599 90.834 239.711 89.1269C238.99 87.7521 238.121 86.4528 237.118 85.25C236.825 84.8954 236.521 84.5481 236.208 84.2087C235.862 83.848 235.383 83.6295 234.871 83.5993C234.058 83.5306 233.022 83.8082 231.763 84.4321C231.542 84.5412 231.325 84.6554 231.111 84.7744C230.939 84.877 230.851 85.0196 230.847 85.2024C230.847 85.2065 230.847 85.2106 230.847 85.2146V85.2146ZM126.883 92.819L133 87.1003C133.039 87.0597 133.074 87.0165 133.105 86.9709C133.177 86.8671 133.213 86.7673 133.213 86.6717C133.213 86.6191 133.202 86.567 133.181 86.5185C133.155 86.4589 133.117 86.4053 133.067 86.3614C133.018 86.3175 132.959 86.2844 132.895 86.2643C132.83 86.2415 132.755 86.2267 132.671 86.2199C132.088 86.1574 131.513 86.0377 130.955 85.8627C130.427 85.7005 129.88 85.4884 129.312 85.2262C129.047 85.1032 128.785 84.9736 128.527 84.8375C128.034 84.5705 127.542 84.3023 127.051 84.033C125.816 83.356 124.883 82.8326 124.252 82.4627C124.086 82.3659 123.922 82.2672 123.758 82.1667C123.134 81.7806 122.364 82.0116 121.447 82.8598C121.254 83.0394 121.071 83.2276 120.897 83.4236C120.669 83.6763 120.466 83.9479 120.29 84.2351C119.498 85.5437 119.648 86.8051 120.741 88.0193C120.786 88.0698 120.833 88.1196 120.88 88.1686C121.653 88.9649 122.458 89.7326 123.293 90.47C124.16 91.2384 125.099 92.0193 126.111 92.8126C126.127 92.8252 126.143 92.8379 126.159 92.8505C126.198 92.8792 126.24 92.9047 126.284 92.9265C126.499 93.0307 126.699 92.9949 126.883 92.819ZM126.258 94.8617L121.62 99.3866C121.407 99.7324 121.463 99.9992 121.788 100.187C121.798 100.193 121.807 100.198 121.817 100.204C123.37 100.893 124.927 101.574 126.488 102.247C128.045 102.917 129.612 103.566 131.191 104.195C132.17 104.606 133.148 104.175 134.127 102.9C134.25 102.739 134.368 102.573 134.48 102.404C134.767 101.977 134.919 101.481 134.919 100.974C134.919 99.127 132.975 96.8803 129.086 94.2336C128.34 93.8054 127.428 93.9916 126.349 94.7922C126.319 94.8151 126.288 94.8383 126.258 94.8617V94.8617ZM203.22 93.6363L210.225 91.1226C210.554 90.9968 210.653 90.7767 210.521 90.4623L206.509 81.0669C206.48 80.998 206.443 80.9329 206.397 80.8731C206.185 80.605 205.844 80.5977 205.374 80.8513C205.357 80.8601 205.341 80.8691 205.325 80.8783C204.18 81.5197 203.363 82.8999 202.876 85.019C202.82 85.2612 202.771 85.5045 202.726 85.7488C202.453 87.2404 202.314 88.7517 202.312 90.266C202.312 91.2558 202.373 92.2448 202.496 93.2277C202.505 93.2986 202.526 93.3677 202.559 93.4317C202.599 93.5061 202.656 93.5706 202.726 93.6202C202.858 93.7146 203.023 93.72 203.22 93.6363ZM275.907 93.6363L282.912 91.1226C283.241 90.9968 283.34 90.7767 283.208 90.4623L279.196 81.0669C279.167 80.9979 279.129 80.9328 279.083 80.8731C278.872 80.605 278.531 80.5977 278.06 80.8513C278.044 80.8601 278.028 80.8691 278.012 80.8783C276.867 81.5197 276.05 82.8999 275.562 85.019C275.507 85.2612 275.457 85.5045 275.413 85.7488C275.139 87.2404 275.001 88.7517 274.999 90.266C274.999 91.2558 275.06 92.2448 275.183 93.2277C275.192 93.2986 275.213 93.3676 275.246 93.4317C275.285 93.5061 275.343 93.5706 275.413 93.6202C275.544 93.7146 275.709 93.72 275.907 93.6363ZM321.097 93.6363L328.103 91.1226C328.431 90.9968 328.53 90.7767 328.398 90.4623L324.386 81.0669C324.357 80.998 324.32 80.9329 324.274 80.8731C324.062 80.605 323.721 80.5977 323.251 80.8513C323.235 80.8601 323.218 80.8691 323.202 80.8783C322.057 81.5197 321.24 82.8999 320.753 85.019C320.698 85.2612 320.648 85.5045 320.604 85.7488C320.33 87.2404 320.192 88.7517 320.189 90.266C320.189 91.2558 320.251 92.2448 320.373 93.2277C320.382 93.2986 320.403 93.3677 320.437 93.4317C320.476 93.5061 320.533 93.5706 320.604 93.6202C320.735 93.7146 320.9 93.72 321.097 93.6363ZM260.133 65.5434C259.719 65.455 259.295 65.4127 258.87 65.4173C258.416 65.4164 257.964 65.4781 257.529 65.6007C256.952 65.7678 256.409 66.03 255.926 66.3756C255.802 66.4628 255.682 66.556 255.567 66.6549C255.244 66.9206 254.979 67.2456 254.79 67.6106C254.6 67.9756 254.489 68.3732 254.462 68.7799C254.375 69.7856 254.539 70.8854 254.955 72.0795C255.372 73.2735 255.975 73.8705 256.765 73.8705C257.372 73.8868 258.146 73.5584 259.085 72.8852C259.39 72.6649 259.686 72.4328 259.972 72.1895C260.73 71.5472 261.296 70.9067 261.669 70.2678C261.946 69.8104 262.123 69.3043 262.191 68.7799C262.197 68.7227 262.202 68.6654 262.206 68.6081C262.324 66.9035 261.633 65.8819 260.133 65.5434Z" fill="#354228" stroke="#354228" stroke-width="0.944882" stroke-linecap="round"/>
<path d="M155.332 151.68C155.332 151.472 155.368 151.276 155.44 151.092C155.52 150.908 155.624 150.748 155.752 150.612C155.888 150.476 156.048 150.368 156.232 150.288C156.416 150.208 156.612 150.168 156.82 150.168C157.028 150.168 157.224 150.208 157.408 150.288C157.592 150.368 157.752 150.476 157.888 150.612C158.024 150.748 158.132 150.908 158.212 151.092C158.292 151.276 158.332 151.472 158.332 151.68C158.332 151.896 158.292 152.096 158.212 152.28C158.132 152.456 158.024 152.612 157.888 152.748C157.752 152.884 157.592 152.988 157.408 153.06C157.224 153.14 157.028 153.18 156.82 153.18C156.612 153.18 156.416 153.14 156.232 153.06C156.048 152.988 155.888 152.884 155.752 152.748C155.624 152.612 155.52 152.456 155.44 152.28C155.368 152.096 155.332 151.896 155.332 151.68ZM168.168 140.652C169.056 140.652 169.856 140.8 170.568 141.096C171.28 141.392 171.888 141.812 172.392 142.356C172.896 142.9 173.28 143.56 173.544 144.336C173.816 145.104 173.952 145.964 173.952 146.916C173.952 147.876 173.816 148.74 173.544 149.508C173.28 150.276 172.896 150.932 172.392 151.476C171.888 152.02 171.28 152.44 170.568 152.736C169.856 153.024 169.056 153.168 168.168 153.168C167.272 153.168 166.464 153.024 165.744 152.736C165.032 152.44 164.424 152.02 163.92 151.476C163.416 150.932 163.028 150.276 162.756 149.508C162.492 148.74 162.36 147.876 162.36 146.916C162.36 145.964 162.492 145.104 162.756 144.336C163.028 143.56 163.416 142.9 163.92 142.356C164.424 141.812 165.032 141.392 165.744 141.096C166.464 140.8 167.272 140.652 168.168 140.652ZM168.168 151.5C169.368 151.5 170.264 151.1 170.856 150.3C171.448 149.492 171.744 148.368 171.744 146.928C171.744 145.48 171.448 144.352 170.856 143.544C170.264 142.736 169.368 142.332 168.168 142.332C167.56 142.332 167.028 142.436 166.572 142.644C166.124 142.852 165.748 143.152 165.444 143.544C165.148 143.936 164.924 144.42 164.772 144.996C164.628 145.564 164.556 146.208 164.556 146.928C164.556 148.368 164.852 149.492 165.444 150.3C166.044 151.1 166.952 151.5 168.168 151.5ZM180.357 142.608C180.621 142.312 180.901 142.044 181.197 141.804C181.493 141.564 181.805 141.36 182.133 141.192C182.469 141.016 182.821 140.884 183.189 140.796C183.565 140.7 183.969 140.652 184.401 140.652C185.065 140.652 185.649 140.764 186.153 140.988C186.665 141.204 187.089 141.516 187.425 141.924C187.769 142.324 188.029 142.808 188.205 143.376C188.381 143.944 188.469 144.572 188.469 145.26V153H186.321V145.26C186.321 144.34 186.109 143.628 185.685 143.124C185.269 142.612 184.633 142.356 183.777 142.356C183.145 142.356 182.553 142.508 182.001 142.812C181.457 143.116 180.953 143.528 180.489 144.048V153H178.341V140.844H179.625C179.929 140.844 180.117 140.992 180.189 141.288L180.357 142.608ZM195.612 135.324V153H193.476V135.324H195.612ZM203.012 140.844V153H200.876V140.844H203.012ZM203.468 137.028C203.468 137.236 203.424 137.432 203.336 137.616C203.256 137.792 203.144 137.952 203 138.096C202.864 138.232 202.7 138.34 202.508 138.42C202.324 138.5 202.128 138.54 201.92 138.54C201.712 138.54 201.516 138.5 201.332 138.42C201.156 138.34 201 138.232 200.864 138.096C200.728 137.952 200.62 137.792 200.54 137.616C200.46 137.432 200.42 137.236 200.42 137.028C200.42 136.82 200.46 136.624 200.54 136.44C200.62 136.248 200.728 136.084 200.864 135.948C201 135.804 201.156 135.692 201.332 135.612C201.516 135.532 201.712 135.492 201.92 135.492C202.128 135.492 202.324 135.532 202.508 135.612C202.7 135.692 202.864 135.804 203 135.948C203.144 136.084 203.256 136.248 203.336 136.44C203.424 136.624 203.468 136.82 203.468 137.028ZM210.217 142.608C210.481 142.312 210.761 142.044 211.057 141.804C211.353 141.564 211.665 141.36 211.993 141.192C212.329 141.016 212.681 140.884 213.049 140.796C213.425 140.7 213.829 140.652 214.261 140.652C214.925 140.652 215.509 140.764 216.013 140.988C216.525 141.204 216.949 141.516 217.285 141.924C217.629 142.324 217.889 142.808 218.065 143.376C218.241 143.944 218.329 144.572 218.329 145.26V153H216.181V145.26C216.181 144.34 215.969 143.628 215.545 143.124C215.129 142.612 214.493 142.356 213.637 142.356C213.005 142.356 212.413 142.508 211.861 142.812C211.317 143.116 210.813 143.528 210.349 144.048V153H208.201V140.844H209.485C209.789 140.844 209.977 140.992 210.049 141.288L210.217 142.608ZM231.4 145.596C231.4 145.1 231.328 144.648 231.184 144.24C231.048 143.824 230.844 143.468 230.572 143.172C230.308 142.868 229.984 142.636 229.6 142.476C229.216 142.308 228.78 142.224 228.292 142.224C227.268 142.224 226.456 142.524 225.856 143.124C225.264 143.716 224.896 144.54 224.752 145.596H231.4ZM233.128 151.296C232.864 151.616 232.548 151.896 232.18 152.136C231.812 152.368 231.416 152.56 230.992 152.712C230.576 152.864 230.144 152.976 229.696 153.048C229.248 153.128 228.804 153.168 228.364 153.168C227.524 153.168 226.748 153.028 226.036 152.748C225.332 152.46 224.72 152.044 224.2 151.5C223.688 150.948 223.288 150.268 223 149.46C222.712 148.652 222.568 147.724 222.568 146.676C222.568 145.828 222.696 145.036 222.952 144.3C223.216 143.564 223.592 142.928 224.08 142.392C224.568 141.848 225.164 141.424 225.868 141.12C226.572 140.808 227.364 140.652 228.244 140.652C228.972 140.652 229.644 140.776 230.26 141.024C230.884 141.264 231.42 141.616 231.868 142.08C232.324 142.536 232.68 143.104 232.936 143.784C233.192 144.456 233.32 145.224 233.32 146.088C233.32 146.424 233.284 146.648 233.212 146.76C233.14 146.872 233.004 146.928 232.804 146.928H224.68C224.704 147.696 224.808 148.364 224.992 148.932C225.184 149.5 225.448 149.976 225.784 150.36C226.12 150.736 226.52 151.02 226.984 151.212C227.448 151.396 227.968 151.488 228.544 151.488C229.08 151.488 229.54 151.428 229.924 151.308C230.316 151.18 230.652 151.044 230.932 150.9C231.212 150.756 231.444 150.624 231.628 150.504C231.82 150.376 231.984 150.312 232.12 150.312C232.296 150.312 232.432 150.38 232.528 150.516L233.128 151.296Z" fill="#354228"/>
<rect x="2.5" y="16.5" width="395" height="195" stroke="#354228" stroke-width="5"/>
<rect x="15.0909" y="3.54092" width="395.578" height="195.288" transform="rotate(-0.102569 15.0909 3.54092)" stroke="#354228" stroke-width="5"/>
</svg>
